<?xml version="1.0" standalone="no"?>
<!DOCTYPE svg PUBLIC "-//W3C//DTD SVG 20010904//EN"
 "http://www.w3.org/TR/2001/REC-SVG-20010904/DTD/svg10.dtd">
<svg version="1.0" xmlns="http://www.w3.org/2000/svg"
 width="1024.000000pt" height="1024.000000pt" viewBox="0 0 1024.000000 1024.000000"
 preserveAspectRatio="xMidYMid meet">
<metadata>
Created by potrace 1.14, written by Peter Selinger 2001-2017
</metadata>
<g transform="translate(0.000000,1024.000000) scale(0.100000,-0.100000)"
fill="#000000" stroke="none">
<path d="M2070 10225 c-36 -8 -75 -16 -86 -19 -51 -11 -185 -71 -251 -112 -40
-25 -104 -75 -144 -112 -73 -68 -169 -187 -169 -208 0 -7 -4 -14 -8 -16 -8 -3
-73 -133 -76 -152 -1 -6 -4 -15 -8 -21 -3 -5 -14 -46 -24 -90 -18 -77 -19
-227 -19 -4600 l0 -4520 29 -70 c15 -38 35 -75 42 -81 8 -6 14 -16 14 -22 0
-14 95 -106 128 -123 15 -8 29 -17 32 -20 3 -3 28 -14 55 -24 28 -9 57 -20 65
-23 59 -21 246 -2 305 31 11 6 22 12 25 12 9 1 585 407 795 561 11 8 58 41
105 74 47 33 96 69 110 79 20 15 226 162 313 223 10 7 40 29 66 48 27 19 58
42 70 50 13 8 58 41 102 72 43 32 81 58 84 58 4 0 26 16 59 45 6 6 34 26 61
45 28 19 52 38 53 42 2 4 8 8 13 8 13 0 99 62 99 72 0 4 5 8 11 8 6 0 38 20
70 45 33 25 62 45 65 45 3 0 20 11 38 25 17 14 36 29 42 34 5 4 20 13 31 20
12 6 27 17 35 23 22 21 86 68 93 68 4 0 12 6 20 13 7 6 23 20 36 29 156 110
266 188 274 195 6 5 39 29 75 53 35 25 92 65 126 90 34 25 72 52 84 60 12 8
42 30 66 47 23 18 46 33 49 33 3 0 16 9 28 21 12 11 34 27 48 34 23 13 29 11
69 -21 24 -19 60 -44 79 -56 20 -12 38 -25 41 -28 3 -3 68 -51 145 -105 77
-55 142 -103 143 -107 2 -5 8 -8 13 -8 5 0 28 -15 52 -32 24 -18 54 -40 66
-48 12 -8 32 -23 44 -32 12 -9 83 -60 157 -112 74 -52 140 -99 145 -103 6 -5
32 -24 60 -43 27 -19 77 -55 111 -80 34 -25 70 -51 80 -58 11 -7 77 -54 147
-105 71 -50 136 -96 145 -102 13 -9 128 -90 157 -112 6 -5 33 -24 60 -42 28
-19 52 -37 55 -41 3 -3 25 -19 50 -35 25 -17 50 -34 57 -40 6 -5 42 -32 80
-58 37 -27 114 -82 171 -123 56 -41 107 -74 112 -74 6 0 10 -3 10 -7 0 -5 17
-19 38 -33 20 -14 69 -48 109 -77 40 -29 77 -53 82 -53 6 0 11 -5 11 -10 0 -6
8 -14 17 -17 9 -4 24 -13 33 -20 13 -11 408 -295 454 -325 10 -7 43 -32 75
-55 31 -23 62 -43 69 -43 6 0 12 -4 12 -9 0 -17 136 -53 213 -56 96 -4 224 29
274 70 7 5 32 26 56 45 61 50 112 126 141 211 l25 74 0 4490 c0 4441 0 4491
-19 4575 -22 92 -27 114 -30 118 -2 1 -3 5 -5 10 -41 147 -188 346 -335 452
-30 22 -59 44 -65 48 -16 12 -135 68 -185 87 -25 9 -83 25 -130 35 -81 18
-214 18 -3070 18 -2473 0 -2996 -2 -3050 -13z m493 -945 c73 0 143 1 157 0
119 -5 300 -3 300 3 0 5 4 6 9 2 8 -4 46 -5 166 -4 58 1 192 0 218 -2 16 -1
181 0 236 1 25 1 48 3 53 6 4 3 8 2 8 -3 0 -7 155 -8 285 -3 25 1 81 1 270 1
11 0 101 0 200 0 99 0 185 0 190 0 6 0 60 0 120 0 61 0 119 0 130 0 11 0 65 0
120 0 55 0 105 0 110 0 68 1 177 -1 198 -2 16 -1 181 0 236 1 25 1 48 3 53 6
4 3 8 2 8 -3 0 -4 60 -7 132 -5 159 3 143 3 223 3 36 0 71 0 78 0 6 1 48 1 92
0 44 0 87 0 95 0 43 1 289 0 310 -1 118 -5 300 -3 300 3 0 5 4 6 9 2 8 -4 46
-5 166 -4 58 1 192 0 218 -2 16 -1 181 0 236 1 25 1 48 3 53 6 4 3 8 2 8 -3 0
-4 60 -7 132 -5 125 2 191 2 280 0 l38 -1 0 -71 c1 -39 1 -78 1 -86 1 -8 0
-26 -1 -40 -1 -22 -2 -123 -1 -177 0 -10 0 -38 0 -63 0 -25 0 -49 0 -55 0 -5
0 -57 0 -115 1 -58 1 -132 2 -165 0 -33 1 -67 0 -75 0 -22 0 -233 1 -245 0 -5
0 -28 -1 -50 -1 -22 -1 -71 -1 -109 0 -37 -3 -72 -5 -77 -3 -4 -2 -10 3 -13 4
-3 6 -29 3 -58 -3 -29 -4 -73 -1 -98 3 -25 3 -80 0 -123 -3 -43 -2 -85 1 -94
3 -9 3 -35 -1 -57 -3 -23 -3 -52 0 -65 3 -13 3 -51 0 -83 -3 -33 -2 -62 2 -64
5 -3 6 -9 3 -14 -3 -5 -6 -44 -5 -87 0 -43 0 -112 0 -153 0 -41 0 -102 1 -135
0 -33 1 -67 0 -75 0 -15 0 -255 1 -275 0 -5 -1 -21 -2 -35 -1 -22 -2 -123 -1
-177 0 -10 0 -38 0 -63 0 -25 0 -49 0 -55 0 -5 0 -57 0 -115 1 -58 1 -132 2
-165 0 -33 1 -67 0 -75 0 -22 0 -233 1 -245 0 -5 0 -28 -1 -50 -1 -22 -1 -71
-1 -109 0 -37 -3 -72 -5 -77 -3 -4 -2 -10 3 -13 4 -3 6 -29 3 -58 -3 -29 -4
-73 -1 -98 3 -25 3 -80 0 -123 -3 -43 -2 -85 1 -94 3 -9 3 -35 -1 -57 -3 -23
-3 -52 0 -65 3 -13 3 -51 0 -83 -3 -33 -2 -62 2 -64 5 -3 6 -9 3 -14 -3 -5 -6
-44 -5 -87 0 -43 0 -112 0 -153 0 -41 0 -102 1 -135 0 -33 1 -67 0 -75 0 -15
0 -255 1 -275 0 -5 -1 -21 -2 -35 -1 -22 -2 -123 -1 -177 0 -10 0 -38 0 -63 0
-25 0 -49 0 -55 0 -5 0 -57 0 -115 1 -58 1 -132 2 -165 0 -33 1 -67 0 -75 0
-22 0 -233 1 -245 0 -5 0 -28 -1 -50 -1 -22 -1 -71 -1 -109 0 -37 -3 -72 -5
-77 -3 -4 -2 -10 3 -13 4 -3 6 -29 3 -58 -3 -29 -4 -73 -1 -98 3 -25 3 -80 0
-123 -3 -43 -2 -85 1 -94 3 -9 3 -35 -1 -57 -3 -23 -3 -52 0 -65 3 -13 3 -51
0 -83 -3 -33 -2 -62 2 -64 5 -3 6 -9 3 -14 -3 -5 -6 -44 -5 -87 0 -43 0 -112
0 -153 0 -41 0 -102 1 -135 0 -33 1 -64 0 -70 -3 -86 -1 -268 3 -272 2 -3 2
-11 0 -18 -4 -10 -17 -5 -48 18 -24 18 -53 39 -66 47 -12 8 -28 20 -34 25 -6
6 -33 26 -61 45 -27 19 -51 37 -53 42 -2 4 -8 8 -13 8 -6 0 -15 5 -22 10 -7 6
-100 73 -207 150 -107 76 -212 151 -233 167 -22 15 -46 33 -56 38 -9 6 -23 16
-31 23 -8 7 -67 49 -130 94 -63 44 -116 85 -118 89 -2 5 -8 9 -13 9 -9 0 -68
38 -79 51 -3 3 -34 26 -70 50 -36 24 -72 49 -80 56 -8 7 -62 46 -120 87 -58
41 -109 79 -115 83 -5 5 -44 32 -85 61 -41 28 -100 70 -130 92 -30 22 -71 51
-90 64 -35 24 -236 168 -255 183 -6 4 -33 24 -60 42 -28 19 -52 37 -55 40 -3
4 -34 26 -70 51 -36 24 -66 48 -68 52 -2 4 -10 8 -18 8 -8 0 -14 5 -14 10 0 6
-6 10 -14 10 -8 0 -16 3 -18 8 -4 8 -154 117 -213 154 -35 22 -86 43 -135 56
-27 7 -195 10 -205 4 -5 -4 -12 -7 -15 -7 -36 -6 -80 -21 -102 -36 -14 -11
-29 -19 -34 -19 -4 0 -25 -14 -48 -30 -23 -17 -62 -46 -88 -65 -26 -19 -51
-35 -57 -35 -5 0 -11 -4 -13 -8 -4 -11 -187 -142 -198 -142 -4 0 -10 -4 -12
-8 -2 -7 -107 -84 -204 -152 -102 -71 -357 -255 -369 -266 -7 -8 -16 -14 -19
-14 -4 0 -126 -86 -321 -226 -11 -8 -113 -81 -226 -162 -114 -81 -217 -155
-230 -164 -43 -32 -214 -153 -239 -170 -28 -20 -154 -109 -185 -132 -35 -26
-153 -111 -172 -124 -10 -7 -69 -49 -132 -93 -62 -44 -115 -78 -117 -76 -3 3
-4 56 -4 118 1 63 1 121 1 129 -1 8 0 38 0 65 1 28 1 56 0 63 -1 6 -1 18 -2
25 0 6 -1 64 0 127 0 63 0 122 0 130 -1 8 -1 38 0 65 0 28 0 57 0 65 -1 8 -1
33 0 55 2 44 3 153 2 173 0 6 0 54 0 105 -1 50 -1 119 -2 152 0 33 -1 67 0 75
0 15 0 255 -1 275 0 6 1 21 2 35 1 22 2 123 1 178 0 9 0 37 0 62 0 25 0 50 0
55 0 6 0 57 0 115 -1 58 -1 132 -2 165 0 33 -1 67 0 75 0 22 0 233 -1 245 0 6
0 28 1 50 1 22 1 71 1 109 0 37 3 72 5 77 3 4 1 10 -5 14 -6 4 -8 10 -5 15 3
5 6 44 5 87 0 43 0 112 0 153 0 41 0 102 -1 135 0 33 -1 67 0 75 0 15 0 255
-1 275 0 6 1 21 2 35 1 22 2 123 1 178 0 9 0 37 0 62 0 25 0 50 0 55 0 6 0 57
0 115 -1 58 -1 132 -2 165 0 33 -1 67 0 75 0 22 0 233 -1 245 0 6 0 28 1 50 1
22 1 71 1 109 0 37 3 72 5 77 3 4 1 10 -5 14 -6 4 -8 10 -5 15 3 5 6 44 5 87
0 43 0 112 0 153 0 41 0 102 -1 135 0 33 -1 67 0 75 0 15 0 255 -1 275 0 6 1
21 2 35 1 22 2 123 1 178 0 9 0 37 0 62 0 25 0 50 0 55 0 6 0 57 0 115 -1 58
-1 132 -2 165 0 33 -1 66 0 73 0 11 1 66 2 277 0 41 0 83 0 93 -1 9 0 37 0 62
0 25 1 52 0 60 0 8 0 40 0 70 0 30 0 61 0 68 -1 6 -1 18 -2 25 0 6 -1 64 0
127 0 63 0 122 0 130 -1 8 -1 38 0 65 0 28 0 57 0 65 -1 8 -1 33 0 55 2 53 3
157 2 173 -1 6 -1 18 -2 25 0 6 0 64 0 127 0 63 0 122 -1 130 0 8 1 38 2 65 1
28 1 55 0 60 -8 31 1 35 81 34 44 -1 83 2 86 5 3 3 10 3 15 0 5 -4 69 -5 141
-4z"/>
</g>
</svg>
