<svg width="200" height="72" viewBox="0 0 200 72" fill="none" xmlns="http://www.w3.org/2000/svg">
<g clip-path="url(#clip0_2_9)">
<path d="M103.256 23.8396L112.771 23.2436C112.988 24.7511 113.386 25.873 114.038 26.6793C115.087 27.9414 116.534 28.5724 118.452 28.5724C119.863 28.5724 120.984 28.2569 121.744 27.5908C122.467 27.0649 122.902 26.2235 122.902 25.3471C122.902 24.5057 122.504 23.6994 121.816 23.1735C121.093 22.5424 119.392 21.9114 116.715 21.3505C112.337 20.4039 109.19 19.1418 107.344 17.5291C105.499 16.0216 104.45 13.8129 104.522 11.464C104.522 9.85136 105.029 8.23868 105.97 6.90647C107.055 5.39897 108.538 4.20699 110.311 3.54088C112.229 2.73454 114.906 2.31384 118.271 2.31384C122.395 2.31384 125.543 3.05007 127.713 4.55757C129.884 6.03001 131.187 8.41397 131.585 11.6744L122.178 12.2003C121.925 10.7979 121.418 9.78124 120.586 9.11514C119.754 8.44903 118.669 8.13351 117.258 8.13351C116.1 8.13351 115.232 8.37891 114.653 8.83467C114.11 9.25537 113.748 9.88642 113.784 10.5876C113.784 11.1135 114.074 11.6043 114.508 11.9198C114.978 12.3405 116.1 12.7261 117.873 13.0767C122.25 13.9882 125.362 14.8997 127.279 15.8463C129.197 16.7929 130.572 17.9498 131.404 19.3171C132.272 20.7194 132.706 22.3321 132.67 23.9798C132.67 25.9431 132.091 27.9063 130.933 29.5541C129.74 31.2719 128.075 32.6041 126.122 33.4105C124.059 34.2869 121.454 34.7427 118.343 34.7427C112.844 34.7427 109.045 33.726 106.91 31.6576C104.776 29.5891 103.509 26.9948 103.256 23.8396ZM2.27931 34.2168V2.87477H18.958C22.0333 2.87477 24.4211 3.12018 26.0492 3.64605C27.6411 4.13687 29.0521 5.15356 29.9928 6.52083C31.042 8.02833 31.5485 9.78124 31.5123 11.6043C31.6208 14.6894 29.9928 17.6343 27.2069 19.1768C26.1216 19.7728 24.9276 20.1935 23.6975 20.4039C24.602 20.6493 25.5065 21.07 26.3025 21.5608C26.9175 22.0516 27.424 22.6126 27.8944 23.2085C28.437 23.8045 28.9074 24.4706 29.3054 25.1718L34.1534 34.2519H22.7931L17.4385 24.6109C16.7511 23.3838 16.1722 22.5775 15.6295 22.1919C14.9059 21.701 14.0376 21.4556 13.1693 21.4556H12.301V34.1818H2.27931V34.2168ZM12.301 15.5659H16.534C17.4385 15.4957 18.3068 15.3555 19.1751 15.1452C19.8263 15.04 20.4052 14.6894 20.8032 14.1635C21.78 12.9014 21.6353 11.1135 20.4414 10.0267C19.7902 9.50078 18.5239 9.22031 16.7149 9.22031H12.301V15.5659ZM0 61.0714L9.5152 60.4754C9.73227 61.9829 10.1302 63.1048 10.7815 63.9111C11.7945 65.1732 13.2779 65.8393 15.1954 65.8393C16.6064 65.8393 17.7279 65.5238 18.4877 64.8577C19.2113 64.2968 19.6454 63.4904 19.6454 62.614C19.6454 61.7726 19.2475 60.9662 18.5601 60.4404C17.8365 59.8093 16.136 59.1783 13.4226 58.6173C9.04486 57.6708 5.89725 56.4087 4.0521 54.796C2.20695 53.2885 1.15774 51.0798 1.2301 48.7309C1.2301 47.1182 1.73661 45.5056 2.67728 44.1734C3.76266 42.6659 5.24602 41.4739 7.01881 40.8078C8.93633 40.0014 11.6136 39.5807 14.9783 39.5807C19.1028 39.5807 22.2504 40.317 24.4211 41.8245C26.5919 43.332 27.8582 45.6809 28.2562 48.9413L18.8495 49.4671C18.5962 48.0648 18.0897 47.0481 17.2576 46.382C16.4617 45.7159 15.3401 45.4004 13.9291 45.4355C12.7713 45.4355 11.903 45.6809 11.3242 46.1717C10.7453 46.5924 10.4197 47.2234 10.4559 47.9246C10.4559 48.4505 10.7453 48.9413 11.1795 49.2568C11.6498 49.6775 12.7713 50.0631 14.5441 50.4137C18.9219 51.3252 22.0333 52.2367 23.9508 53.1833C25.8683 54.1299 27.2431 55.2868 28.0753 56.6541C28.9436 58.0564 29.3777 59.6691 29.3777 61.2818C29.3777 63.245 28.7627 65.1732 27.6411 66.821C26.4472 68.5388 24.7829 69.871 22.8292 70.6774C20.767 71.5538 18.1621 72.0096 15.0507 72.0096C9.55138 72.0096 5.75253 70.9929 3.61795 68.9245C1.48336 66.821 0.289436 64.2267 0 61.0714H0Z" fill="black"/>
<path d="M48.1187 58.6173L56.8741 61.1765C56.4038 63.3151 55.4269 65.3485 54.0883 67.1364C52.8582 68.7141 51.2301 69.9411 49.385 70.7474C47.5036 71.5538 45.1158 71.9745 42.2214 71.9745C38.712 71.9745 35.8177 71.4837 33.6107 70.502C31.3676 69.5204 29.4501 67.7675 27.822 65.2784C26.1939 62.7892 25.398 59.5989 25.398 55.7075C25.398 50.5188 26.809 46.5222 29.6672 43.7526C32.5253 40.983 36.5413 39.5807 41.7511 39.5807C45.8394 39.5807 49.0232 40.387 51.3748 41.9646C53.6903 43.5773 55.4269 46.0314 56.5847 49.3269L47.7569 51.22C47.5398 50.4838 47.2142 49.7476 46.78 49.1165C46.2373 48.3803 45.5499 47.8194 44.7178 47.3987C43.8857 46.978 42.945 46.8027 42.0043 46.8027C39.725 46.8027 37.9884 47.6791 36.7945 49.4671C35.89 50.7643 35.4197 52.8327 35.4197 55.6374C35.4197 59.1081 35.9624 61.4921 37.0478 62.7892C38.1331 64.0864 39.6527 64.7174 41.6426 64.7174C43.5601 64.7174 45.0072 64.1916 45.9841 63.1749C46.9609 62.0881 47.6845 60.5806 48.1187 58.6173ZM68.5601 40.1066H78.5456V51.0798H89.4718V40.1066H99.5297V71.4486H89.4718V58.7575H78.5456V71.4486H68.5601V40.1066Z" fill="black"/>
<path d="M98.1548 55.7776C98.1548 50.6591 99.6382 46.6625 102.569 43.8228C105.499 40.983 109.624 39.5457 114.87 39.5457C120.26 39.5457 124.385 40.948 127.315 43.7526C130.246 46.5573 131.693 50.4838 131.693 55.5322C131.693 59.2133 131.042 62.1933 129.776 64.5422C128.546 66.856 126.628 68.7491 124.276 70.0112C121.852 71.3084 118.85 71.9745 115.268 71.9745C111.614 71.9745 108.611 71.4136 106.223 70.2917C103.763 69.0997 101.737 67.2416 100.398 64.9629C98.9146 62.5088 98.1548 59.4587 98.1548 55.7776ZM108.14 55.8127C108.14 58.9679 108.755 61.2467 109.949 62.649C111.143 64.0163 112.808 64.7175 114.906 64.7175C117.041 64.7175 118.705 64.0513 119.899 62.6841C121.093 61.3168 121.671 58.8978 121.671 55.392C121.671 52.4471 121.056 50.2735 119.826 48.9413C118.596 47.574 116.932 46.9079 114.834 46.9079C112.988 46.8378 111.216 47.609 109.986 48.9763C108.755 50.3436 108.14 52.6224 108.14 55.8127ZM141.932 55.7776C141.932 50.6591 143.415 46.6625 146.346 43.8228C149.276 40.983 153.401 39.5457 158.647 39.5457C164.038 39.5457 168.198 40.948 171.093 43.7526C173.987 46.5573 175.47 50.4838 175.47 55.5322C175.47 59.2133 174.819 62.1933 173.553 64.5422C172.323 66.856 170.405 68.7491 168.054 70.0112C165.63 71.3084 162.627 71.9745 159.045 71.9745C155.391 71.9745 152.388 71.4136 150 70.2917C147.54 69.0997 145.514 67.2416 144.175 64.9629C142.692 62.5088 141.932 59.4587 141.932 55.7776ZM151.918 55.8127C151.918 58.9679 152.533 61.2467 153.726 62.649C154.92 64.0163 156.585 64.7175 158.683 64.7175C160.818 64.7175 162.482 64.0513 163.676 62.6841C164.87 61.3168 165.449 58.8978 165.449 55.392C165.449 52.4471 164.834 50.2735 163.603 48.9413C162.373 47.574 160.709 46.9079 158.611 46.9079C156.766 46.8378 154.957 47.609 153.763 48.9763C152.533 50.3436 151.918 52.6224 151.918 55.8127Z" fill="black"/>
<path d="M174.421 40.1066H184.407V63.7358H200V71.4486H174.385V40.1066H174.421Z" fill="black"/>
<path d="M169.651 11.7424C175.425 19.5283 172.614 31.7712 163.093 39.0623C153.573 46.3533 141.218 45.725 135.444 37.9391C129.671 30.1533 132.482 17.9103 142.002 10.6193C151.523 3.32824 163.878 3.95657 169.651 11.7424Z" stroke="black" stroke-miterlimit="10"/>
<path d="M142.772 22.5178L146.251 20.0434L150.529 26.2294C151.259 27.2191 151.816 28.2795 152.233 29.446C152.477 30.3297 152.407 31.2841 152.059 32.1325C151.607 33.193 150.877 34.0767 149.903 34.7129C148.755 35.5259 147.781 35.9855 146.946 36.1269C146.146 36.2682 145.312 36.1269 144.546 35.7734C143.712 35.3492 142.981 34.7483 142.425 33.9706L145.416 31.1428C145.659 31.5316 145.972 31.8851 146.32 32.1679C146.564 32.3446 146.842 32.4506 147.155 32.4506C147.399 32.4506 147.642 32.3446 147.816 32.2032C148.164 31.9911 148.407 31.5669 148.372 31.1428C148.268 30.5418 148.025 29.9409 147.642 29.4814L142.772 22.5178ZM153.207 26.4414L156.373 23.8964C156.72 24.3205 157.173 24.6387 157.66 24.8154C158.355 25.0275 159.086 24.8861 159.677 24.4266C160.094 24.1438 160.442 23.755 160.581 23.2601C160.79 22.6238 160.442 21.9169 159.816 21.7048C159.712 21.6694 159.607 21.6341 159.503 21.6341C159.086 21.5987 158.355 21.7755 157.277 22.235C155.503 22.9773 154.112 23.2601 153.068 23.1541C152.059 23.048 151.12 22.5178 150.564 21.6341C150.146 21.0332 149.938 20.3262 149.903 19.6192C149.903 18.8062 150.112 17.9932 150.564 17.3216C151.225 16.3672 152.025 15.5542 152.999 14.9179C154.459 13.8928 155.746 13.3979 156.859 13.3979C157.973 13.3979 159.016 13.9282 159.99 15.024L156.859 17.5337C156.233 16.7207 155.051 16.5439 154.251 17.1802L154.146 17.2863C153.799 17.4983 153.555 17.8165 153.416 18.2053C153.312 18.4881 153.381 18.8062 153.555 19.0537C153.694 19.2304 153.903 19.3718 154.146 19.3718C154.425 19.4071 154.912 19.2658 155.607 18.9476C157.346 18.2053 158.668 17.7811 159.573 17.6397C160.338 17.4983 161.138 17.569 161.868 17.8872C162.529 18.17 163.086 18.6648 163.468 19.2658C163.955 19.9727 164.233 20.8211 164.268 21.7048C164.303 22.6238 164.06 23.5075 163.573 24.2852C162.947 25.2396 162.146 26.0526 161.207 26.6889C159.294 28.0321 157.729 28.5977 156.477 28.3856C155.12 28.1735 154.007 27.4665 153.207 26.4414Z" fill="black"/>
</g>
<defs>
<clipPath id="clip0_2_9">
<rect width="200" height="72" fill="white"/>
</clipPath>
</defs>
</svg>
